<?xml version="1.0" encoding="utf-8"?>
<svg fill="#fff" width="800px" height="800px" viewBox="0 0 32 32" version="1.1" xmlns="http://www.w3.org/2000/svg">
<title>delphi</title>
<path d="M13.806 23.688c-0.596 0.016-1.163 0.111-1.7 0.274l0.045-0.012c-0.046 0.018-0.082 0.052-0.103 0.094l-0.001 0.001q-0.317 0.647-0.625 1.298c-0.064 0.13-0.125 0.262-0.187 0.394l0.029 0.025c0.005-0.018 0.011-0.035 0.019-0.050l-0.001 0.001q0.534-0.75 1.071-1.497c0.036-0.046 0.084-0.081 0.139-0.099l0.002-0.001c0.57-0.216 1.229-0.342 1.918-0.342 0.049 0 0.097 0.001 0.145 0.002l-0.007-0c-0.026-0.009-0.060-0.018-0.094-0.026l-0.007-0.001c-0.188-0.038-0.405-0.060-0.627-0.060-0.006 0-0.012 0-0.018 0h0.001zM13.781 23.35c0.147 0 0.294 0.006 0.441 0.019 0.671 0.056 1.34 0.139 2.009 0.214 0.040 0.009 0.074 0.034 0.093 0.068l0 0.001q0.407 0.879 0.807 1.762c0.006 0.013 0.009 0.028 0.009 0.044s-0.003 0.031-0.010 0.044l0-0.001-0.746 1.347c-0.521-0.089-1.030-0.185-1.542-0.26q-0.59-0.087-1.185-0.135c-0.405-0.032-0.811-0.062-1.216-0.061-0.044-0.001-0.096-0.002-0.148-0.002-0.662 0-1.301 0.103-1.899 0.295l0.044-0.012-0.056 0.017 0.381-0.887c0.239-0.557 0.485-1.112 0.712-1.675 0.075-0.183 0.21-0.328 0.379-0.415l0.005-0.002c0.276-0.145 0.598-0.247 0.938-0.286l0.013-0.001c0.289-0.045 0.625-0.071 0.966-0.074h0.002zM9.364 21.586c0.044 0 0.075 0.021 0.105 0.075 0.192 0.381 0.371 0.692 0.564 0.992l-0.026-0.042-2.643 1.408c-0.288-0.494-0.569-1.075-0.804-1.679l-0.030-0.086 2.777-0.662c0.017-0.005 0.037-0.007 0.057-0.008v0zM16.104 20.080c0.033 0.006 0.062 0.022 0.084 0.045l0 0c0.38 0.377 0.746 0.769 1.138 1.131 0.33 0.305 0.69 0.576 1.037 0.862 0.492 0.406 0.919 0.863 1.284 1.369l0.015 0.022c0.622 0.849 1.098 1.849 1.368 2.93l0.012 0.059c0.004 0.025 0.006 0.053 0.006 0.082 0 0.083-0.017 0.162-0.047 0.234l0.001-0.004c-0.131 0.322-0.343 0.589-0.612 0.781l-0.005 0.004c-0.353 0.28-0.758 0.518-1.194 0.695l-0.033 0.012c-0.091 0.038-0.125 0.019-0.165-0.070q-0.68-1.488-1.37-2.972l-1.858-4.028-0.434-0.937-0.025-0.065c0.267-0.051 0.53-0.104 0.792-0.15h0.005zM5.803 19.379c0.146 0.027 0.287 0.054 0.427 0.084 0.87 0.181 1.733 0.359 2.602 0.544 0.037 0.009 0.094 0.052 0.097 0.086 0.075 0.35 0.311 1.023 0.321 1.062h-0.501c-0.392 0-0.785-0.003-1.177 0q-0.694 0.008-1.39 0.023h-0.009c-0.149-0.501-0.279-1.11-0.364-1.733l-0.007-0.066zM5.825 15.837l0.715 0.445c0.707 0.44 1.428 0.883 2.137 1.321 0.054 0.026 0.091 0.080 0.091 0.143 0 0.007-0 0.013-0.001 0.020l0-0.001c-0.013 0.182-0.020 0.395-0.020 0.609 0 0.382 0.023 0.758 0.068 1.128l-0.004-0.044-0.525-0.184c-0.846-0.292-1.691-0.586-2.537-0.875l-0.037-0.017c-0.012-0.209-0.019-0.454-0.019-0.701 0-0.651 0.048-1.29 0.14-1.916l-0.009 0.071zM22.248 13.119l0.169 1.020c0.071 0.441 0.139 0.882 0.21 1.325l0.241 1.49c0.045 0.271 0.087 0.544 0.134 0.816 0.012 0.071 0.004 0.107-0.084 0.124-0.987 0.191-1.976 0.389-2.964 0.582q-1.85 0.364-3.701 0.722c-0.645 0.126-1.287 0.256-1.932 0.384-0.005 0-0.010 0.001-0.015 0.001-0.009 0-0.017-0.001-0.025-0.002l0.001 0c-0.072-0.259-0.149-0.517-0.215-0.779 0-0.040 0.019-0.076 0.047-0.1l0-0zM6.849 12.376l0.434 0.58c0.632 0.85 1.272 1.697 1.904 2.546 0.036 0.034 0.059 0.082 0.059 0.135 0 0.024-0.005 0.047-0.013 0.068l0-0.001c-0.175 0.434-0.314 0.941-0.393 1.468l-0.005 0.038c-0.155-0.136-0.309-0.27-0.45-0.396l-1.877-1.655c-0.145-0.129-0.291-0.256-0.432-0.39-0.017-0.018-0.029-0.040-0.035-0.064l-0-0.001c0.21-0.869 0.475-1.622 0.804-2.339l-0.033 0.079zM14.519 12.144c-0.033 0.014-0.064 0.026-0.095 0.041-0.727 0.342-1.353 0.739-1.923 1.201l0.017-0.014c-0.69 0.544-1.272 1.186-1.735 1.912l-0.018 0.031c-0.507 0.8-0.822 1.768-0.857 2.806l-0 0.009c-0.001 0.049-0.002 0.106-0.002 0.163 0 0.578 0.078 1.137 0.225 1.669l-0.010-0.044c0.244 0.905 0.585 1.697 1.021 2.426l-0.024-0.043c0.041 0.072 0.092 0.062 0.144 0.039 0.149-0.070 0.294-0.147 0.446-0.225l-0.050-0.087c-0.205-0.359-0.43-0.707-0.611-1.077-0.42-0.797-0.667-1.742-0.667-2.744 0-0.158 0.006-0.314 0.018-0.468l-0.001 0.020c0.038-0.444 0.123-0.855 0.251-1.245l-0.011 0.038c0.504-1.395 1.362-2.561 2.468-3.424l0.017-0.013c0.411-0.342 0.868-0.663 1.35-0.946l0.048-0.026zM16.256 11.163c0.146 0 0.292 0.004 0.439 0.014 1.054 0.082 2.021 0.385 2.877 0.863l-0.036-0.018c0.603 0.325 1.123 0.686 1.598 1.098l-0.011-0.009c0.084 0.071 0.162 0.147 0.252 0.23l-1.728 1.187-4.652 3.179c-0.385 0.262-0.769 0.531-1.156 0.791-0.060 0.027-0.101 0.087-0.101 0.155 0 0.021 0.004 0.042 0.011 0.061l-0-0.001c0.1 0.432 0.184 0.867 0.275 1.3 0.007 0.025 0.014 0.045 0.023 0.065l-0.002-0.004 0.777-0.154 1.551 3.257c-0.185-0.025-0.352-0.051-0.521-0.071-0.356-0.040-0.712-0.084-1.070-0.112-0.261-0.026-0.564-0.040-0.87-0.040-0.027 0-0.054 0-0.081 0l0.004-0c-0.029-0.001-0.063-0.001-0.097-0.001-0.563 0-1.106 0.088-1.615 0.251l0.037-0.010c-0.318 0.098-0.583 0.287-0.775 0.536l-0.003 0.004c-0.136-0.134-0.274-0.26-0.4-0.395-0.504-0.537-0.927-1.156-1.246-1.835l-0.018-0.043c-0.268-0.567-0.473-1.225-0.582-1.916l-0.005-0.041c-0.054-0.32-0.085-0.69-0.085-1.066 0-0.188 0.008-0.374 0.023-0.558l-0.002 0.024c0.106-1.377 0.583-2.625 1.331-3.666l-0.015 0.022c1.107-1.559 2.778-2.655 4.71-2.993l0.044-0.006c0.336-0.061 0.723-0.096 1.118-0.096h0zM9.586 8.496l0.83 3.693c0.082 0.366 0.166 0.71 0.244 1.077 0.001 0.007 0.002 0.015 0.002 0.023 0 0.035-0.012 0.068-0.032 0.094l0-0c-0.456 0.531-0.854 1.133-1.171 1.782l-0.022 0.050-0.346-0.699q-0.806-1.621-1.612-3.24c-0.013-0.023-0.021-0.050-0.022-0.078v-0l0.156-0.257c0.311-0.441 0.614-0.891 0.943-1.318 0.246-0.317 0.541-0.596 0.814-0.892zM14.402 5.563c-0.020 0.13-0.037 0.251-0.059 0.372q-0.36 2.079-0.725 4.158c-0.075 0.44-0.144 0.806-0.212 1.247-0.012 0.082-0.064 0.095-0.116 0.116-0.887 0.398-1.646 0.917-2.298 1.547l0.002-0.002-0.066-0.794c-0.025-0.284-0.046-0.566-0.069-0.848-0.024-0.294-0.046-0.587-0.071-0.88l-0.075-0.856-0.071-0.847-0.075-0.878c-0.006-0.082-0.019-0.165-0.018-0.247l0.001-0.006c1.097-0.875 2.375-1.582 3.763-2.054l0.089-0.026zM21.523 5.337c1.561 0.417 2.927 1.076 4.133 1.943l-0.037-0.026-2.246 1.891-2.139 1.793c-0.36 0.302-0.72 0.607-1.076 0.915-0.025 0.026-0.060 0.042-0.099 0.042-0.027 0-0.052-0.008-0.073-0.021l0.001 0c-0.681-0.41-1.475-0.718-2.321-0.878l-0.045-0.007 0.579-0.837 2.287-3.313q0.519-0.75 1.037-1.502zM18.344 4.928c0.554 0 1.1 0.036 1.635 0.105l-0.063-0.007-0.755 1.4-1.395 2.59-0.946 1.767c-0.020 0.050-0.068 0.085-0.124 0.085-0.006 0-0.013-0-0.019-0.001l0.001 0c-0.141-0.010-0.306-0.015-0.471-0.015-0.794 0-1.559 0.127-2.274 0.362l0.051-0.015 0.25-0.937 1.268-4.709c0.029-0.106 0.059-0.212 0.085-0.32 0.826-0.194 1.774-0.305 2.748-0.305 0.003 0 0.006 0 0.009 0h-0zM15.982 1.004c-0.001 0-0.001 0-0.002 0-8.293 0-15.015 6.722-15.015 15.015s6.722 15.015 15.015 15.015c8.293 0 15.015-6.722 15.015-15.015 0-7.919-6.131-14.407-13.905-14.975l-0.049-0.003c-0.354-0.025-0.707-0.038-1.058-0.038z"></path>
</svg>